<svg width="210" height="276" viewBox="0 0 210 276" fill="none" xmlns="http://www.w3.org/2000/svg">
<g clip-path="url(#clip0_1_96)">
<path fill-rule="evenodd" clip-rule="evenodd" d="M107.288 0C136.822 0 160.798 48.2565 160.798 107.698C160.798 167.128 136.822 215.384 107.288 215.384C77.7559 215.384 53.7788 167.128 53.7788 107.698C53.7788 48.2565 77.7559 0 107.288 0ZM107.288 13.0046C81.0506 13.0046 59.7475 55.4341 59.7475 107.698C59.7475 159.951 81.0506 202.38 107.288 202.38C133.528 202.38 154.831 159.951 154.831 107.698C154.831 55.4341 133.528 13.0046 107.288 13.0046Z" fill="#F1F1F1"/>
<path fill-rule="evenodd" clip-rule="evenodd" d="M17.2727 53.8489C5.39134 75.1696 36.0806 116.606 85.7619 146.321C135.441 176.047 185.421 182.867 197.302 161.535C209.183 140.215 178.494 98.7789 128.815 69.0637C79.1339 39.3486 29.1541 32.5281 17.2727 53.8489ZM28.1414 60.3455C38.6965 41.4135 82.7313 47.2406 126.414 73.3725C170.095 99.5044 196.989 136.096 186.434 155.039C175.877 173.982 131.844 168.144 88.1624 142.023C44.4799 115.891 17.5852 79.2886 28.1414 60.3455Z" fill="#BCC1CA"/>
<path d="M107.289 135.694C95.057 135.694 85.1409 123.16 85.1409 107.698C85.1409 92.2361 95.057 79.7017 107.289 79.7017C119.521 79.7017 129.437 92.2361 129.437 107.698C129.437 123.16 119.521 135.694 107.289 135.694Z" fill="#F1F1F1"/>
<path fill-rule="evenodd" clip-rule="evenodd" d="M192.416 28.8762C202.095 30.7053 208.3 42.0391 206.265 54.1704C204.228 66.3014 194.715 74.6653 185.036 72.8362C175.358 71.0073 169.153 59.662 171.188 47.542C173.226 35.4112 182.737 27.0473 192.416 28.8762Z" fill="#F1F1F1"/>
<path d="M17.5577 175.48C7.88813 173.542 1.80028 162.152 3.96005 150.04C6.11983 137.928 15.7094 129.68 25.3789 131.618C35.0484 133.557 41.1363 144.947 38.9765 157.059C36.8168 169.171 27.2272 177.419 17.5577 175.48Z" fill="#F1F1F1"/>
<path fill-rule="evenodd" clip-rule="evenodd" d="M24.7304 123.772C36.5956 105.544 58.2704 85.5065 85.762 69.0638C115.079 51.5272 144.499 41.9609 166.134 41.4586C165.476 43.9813 165.076 46.6491 164.972 49.4063C145.564 47.8435 116.788 56.2492 88.1624 73.3728C61.5586 89.2908 41.182 109.082 31.7 126.407C29.5366 125.101 27.1944 124.197 24.7304 123.772ZM196.476 79.289C187.735 100.353 162.69 126.061 128.816 146.332C95.0824 166.503 61.2106 176.125 39.2212 173.547C40.9784 171.057 42.4124 168.2 43.4402 165.074C62.5541 169.327 94.5782 161.067 126.414 142.012C157.321 123.527 179.823 99.8061 186.603 80.796C187.303 80.8741 188.011 80.9187 188.729 80.9187C191.44 80.9187 194.046 80.3383 196.476 79.289Z" fill="#F1F1F1"/>
<path d="M16.6388 260.737H6.12381V259.658C6.37054 259.628 6.6992 259.598 7.1917 259.573C7.65721 259.543 7.95839 259.488 8.15018 259.404C8.47883 259.259 8.69809 259.089 8.83495 258.864C8.94434 258.635 8.99929 258.35 8.99929 257.986V244.055C8.99929 243.741 8.94434 243.456 8.83495 243.232C8.72508 242.977 8.47883 242.807 8.15018 242.632C7.9314 242.548 7.63022 242.463 7.1917 242.353C6.78112 242.268 6.42499 242.208 6.12381 242.153V241.075H16.6388V242.153C16.3651 242.183 16.0364 242.238 15.6253 242.268C15.2422 242.323 14.8861 242.408 14.6124 242.493C14.2837 242.607 14.0375 242.807 13.9281 243.062C13.8182 243.316 13.7638 243.601 13.7638 243.911V257.841C13.7638 258.18 13.8182 258.465 13.9281 258.695C14.065 258.919 14.2837 259.119 14.6124 259.259C14.8042 259.344 15.1054 259.429 15.5434 259.513C15.9815 259.598 16.3376 259.628 16.6388 259.658V260.737Z" fill="#F1F1F1"/>
<path d="M40.2087 242.153C39.935 242.183 39.5789 242.238 39.1408 242.323C38.6753 242.378 38.2373 242.578 37.8812 242.862C37.5525 243.087 37.3063 243.516 37.1694 244.14C37.0325 244.735 36.9501 245.613 36.9501 246.807V260.847H34.5956L22.7665 245.643V254.865C22.7665 256.023 22.8485 256.907 22.9853 257.471C23.1222 258.071 23.3689 258.525 23.6976 258.804C23.9438 259.004 24.3274 259.174 24.8473 259.344C25.3678 259.489 25.8058 259.598 26.107 259.658V260.737H17.9471V259.658C18.3032 259.628 18.6863 259.573 19.1518 259.459C19.5899 259.344 19.9735 259.174 20.2746 258.949C20.6308 258.695 20.8496 258.295 20.9864 257.756C21.1233 257.217 21.1782 256.308 21.1782 255.035V245.728C21.1782 245.244 21.1233 244.819 20.9864 244.42C20.8496 243.996 20.6308 243.656 20.3296 243.346C20.0284 243.032 19.6723 242.777 19.2617 242.608C18.8506 242.438 18.3851 242.293 17.8652 242.183V241.075H25.0117L35.3898 254.381V246.946C35.3898 245.758 35.3074 244.874 35.1705 244.31C35.0062 243.711 34.7599 243.287 34.4313 243.002C34.1846 242.807 33.8014 242.633 33.281 242.463C32.788 242.323 32.3774 242.208 32.0488 242.153V241.075H40.2087V242.153Z" fill="#F1F1F1"/>
<path d="M59.0301 246.692H57.9897C57.716 245.868 57.2775 244.959 56.6751 243.996C56.0452 243.032 55.4978 242.523 54.9774 242.438C54.6762 242.408 54.3475 242.378 53.9095 242.353C53.4989 242.323 53.1428 242.323 52.8416 242.323H52.2118V257.726C52.2118 258.071 52.2667 258.35 52.3761 258.61C52.486 258.864 52.7322 259.059 53.0609 259.204C53.2527 259.289 53.5808 259.374 54.0194 259.458C54.4574 259.543 54.813 259.628 55.1142 259.658V260.737H44.5448V259.658C44.7916 259.628 45.1747 259.598 45.6402 259.543C46.1057 259.488 46.4069 259.428 46.5987 259.344C46.9273 259.204 47.1736 259.004 47.2834 258.75C47.3928 258.495 47.4473 258.21 47.4473 257.871V242.323H46.8179C46.5167 242.323 46.1606 242.323 45.75 242.353C45.339 242.378 44.9834 242.408 44.6817 242.438C44.1617 242.523 43.6138 243.032 43.0114 243.996C42.3816 244.959 41.9436 245.868 41.6698 246.692H40.6294V241.075H59.0301V246.692Z" fill="#F1F1F1"/>
<path d="M76.9402 246.098H75.9268C75.6531 245.359 75.215 244.595 74.5852 243.826C73.9554 243.062 73.3255 242.607 72.6957 242.463C72.422 242.408 72.0663 242.353 71.5734 242.353C71.1078 242.323 70.7243 242.323 70.3956 242.323H67.6575V249.927H69.6019C70.0944 249.927 70.5329 249.867 70.9435 249.727C71.3266 249.612 71.7102 249.388 72.0389 249.048C72.2302 248.819 72.4494 248.449 72.6412 247.91C72.86 247.371 72.9969 246.921 73.0518 246.522H74.0652V254.72H73.0518C72.9969 254.326 72.86 253.841 72.6412 253.272C72.422 252.678 72.2302 252.279 72.0389 252.054C71.7377 251.714 71.3816 251.485 70.9984 251.375C70.5874 251.23 70.1219 251.175 69.6019 251.175H67.6575V256.847C67.6575 257.446 67.6849 257.896 67.7673 258.24C67.8493 258.61 68.0136 258.864 68.2598 259.034C68.4791 259.234 68.7803 259.344 69.1634 259.404C69.547 259.459 70.0674 259.488 70.7517 259.488C71.0529 259.488 71.4365 259.458 71.8745 259.458C72.3126 259.458 72.6957 259.429 73.0243 259.374C73.4079 259.344 73.7366 259.259 74.0652 259.174C74.3934 259.089 74.6401 258.949 74.8045 258.779C75.215 258.325 75.708 257.616 76.2555 256.707C76.7759 255.769 77.132 255.06 77.2959 254.605H78.2818L77.9257 260.737H60.1274V259.658C60.3741 259.628 60.7028 259.598 61.1408 259.543C61.5514 259.488 61.8526 259.428 62.0443 259.344C62.373 259.204 62.6193 259.004 62.7286 258.779C62.8385 258.55 62.893 258.265 62.893 257.926V244.055C62.893 243.711 62.8385 243.456 62.7561 243.232C62.6467 243.002 62.4275 242.807 62.0443 242.632C61.8251 242.523 61.4964 242.438 61.0584 242.353C60.6478 242.238 60.3466 242.183 60.1274 242.153V241.075H76.9402V246.098Z" fill="#F1F1F1"/>
<path d="M101.644 260.737H94.3607C93.1285 258.749 92.0606 257.162 91.2389 255.968C90.4173 254.775 89.3769 253.417 88.1172 251.854H87.4055V257.841C87.4055 258.18 87.4604 258.465 87.5698 258.695C87.7066 258.919 87.9259 259.119 88.2541 259.259C88.4459 259.344 88.6926 259.429 89.0482 259.488C89.4318 259.573 89.733 259.628 89.9793 259.658V260.737H79.8754V259.658C80.1216 259.628 80.4777 259.598 80.8883 259.543C81.3268 259.488 81.6006 259.428 81.7924 259.344C82.1205 259.204 82.3672 259.004 82.4766 258.779C82.586 258.55 82.641 258.265 82.641 257.926V244.055C82.641 243.711 82.586 243.456 82.5041 243.232C82.3947 243.002 82.1755 242.807 81.7924 242.632C81.5182 242.523 81.1625 242.408 80.7789 242.353C80.3958 242.268 80.0946 242.208 79.8754 242.153V241.075H90.4997C92.8817 241.075 94.6893 241.474 95.921 242.238C97.1532 243.002 97.7831 244.165 97.7831 245.728C97.7831 247.116 97.4 248.224 96.6333 249.048C95.8666 249.897 94.7163 250.551 93.1559 251.005C93.7583 251.829 94.4701 252.763 95.2642 253.841C96.0854 254.92 96.9345 255.998 97.7831 257.132C98.0843 257.471 98.4404 257.926 98.9334 258.435C99.3989 258.974 99.8369 259.289 100.193 259.404C100.384 259.459 100.659 259.513 100.96 259.573C101.288 259.628 101.507 259.658 101.644 259.658V260.737ZM92.5531 246.123C92.5531 244.819 92.1974 243.856 91.4852 243.262C90.7734 242.632 89.7605 242.353 88.4459 242.353H87.4055V250.576H88.4184C89.733 250.576 90.746 250.212 91.4582 249.503C92.17 248.794 92.5531 247.655 92.5531 246.123Z" fill="#F1F1F1"/>
<path d="M127.776 260.737H117.481V259.658C117.782 259.628 118.165 259.573 118.603 259.513C119.041 259.458 119.343 259.374 119.507 259.319C119.836 259.174 120.082 258.974 120.219 258.75C120.356 258.495 120.438 258.18 120.438 257.811V243.147L113.894 260.422H112.224C112.141 260.113 111.95 259.513 111.621 258.61C111.32 257.701 111.046 256.962 110.855 256.423L106.063 242.917V254.865C106.063 256.023 106.144 256.907 106.281 257.471C106.419 258.07 106.665 258.525 106.994 258.804C107.212 258.974 107.623 259.174 108.198 259.344C108.773 259.513 109.157 259.628 109.403 259.658V260.737H101.243V259.658C101.462 259.628 101.819 259.573 102.338 259.458C102.831 259.374 103.242 259.204 103.571 258.949C103.927 258.695 104.173 258.265 104.283 257.641C104.42 257.047 104.474 256.168 104.474 255.035V245.304C104.474 244.705 104.42 244.195 104.255 243.826C104.119 243.431 103.899 243.117 103.626 242.892C103.269 242.607 102.913 242.408 102.53 242.323C102.147 242.238 101.764 242.183 101.38 242.153V241.075H110.115L114.797 254.066L118.74 243.516C118.877 243.117 119.014 242.662 119.124 242.123C119.261 241.584 119.316 241.244 119.343 241.075H127.749V242.153C127.448 242.183 127.174 242.208 126.845 242.268C126.544 242.323 126.243 242.408 125.942 242.493C125.613 242.607 125.367 242.807 125.257 243.062C125.148 243.316 125.093 243.601 125.093 243.911V257.841C125.093 258.18 125.148 258.465 125.257 258.665C125.367 258.889 125.613 259.089 125.942 259.259C126.133 259.344 126.435 259.429 126.818 259.513C127.229 259.573 127.558 259.628 127.776 259.658V260.737Z" fill="#F1F1F1"/>
<path d="M146.545 246.098H145.532C145.258 245.359 144.82 244.595 144.191 243.826C143.561 243.062 142.931 242.607 142.301 242.463C142.027 242.408 141.671 242.353 141.178 242.353C140.713 242.323 140.33 242.323 140.001 242.323H137.263V249.927H139.207C139.7 249.927 140.138 249.867 140.548 249.727C140.932 249.612 141.315 249.388 141.644 249.048C141.836 248.819 142.054 248.449 142.246 247.91C142.465 247.371 142.602 246.921 142.657 246.522H143.67V254.72H142.657C142.602 254.326 142.465 253.841 142.246 253.272C142.027 252.678 141.836 252.279 141.644 252.054C141.343 251.714 140.986 251.485 140.603 251.375C140.193 251.23 139.727 251.175 139.207 251.175H137.263V256.847C137.263 257.446 137.29 257.896 137.372 258.24C137.454 258.61 137.618 258.864 137.865 259.034C138.084 259.234 138.385 259.344 138.769 259.404C139.152 259.459 139.672 259.488 140.357 259.488C140.658 259.488 141.041 259.458 141.479 259.458C141.917 259.458 142.301 259.429 142.63 259.374C143.013 259.344 143.341 259.259 143.67 259.174C143.999 259.089 144.245 258.949 144.409 258.779C144.82 258.325 145.313 257.616 145.861 256.707C146.381 255.769 146.737 255.06 146.901 254.605H147.887L147.531 260.737H129.733V259.658C129.979 259.628 130.308 259.598 130.746 259.543C131.156 259.488 131.457 259.428 131.649 259.344C131.978 259.204 132.224 259.004 132.334 258.779C132.443 258.55 132.498 258.265 132.498 257.926V244.055C132.498 243.711 132.443 243.456 132.361 243.232C132.252 243.002 132.033 242.807 131.649 242.632C131.43 242.523 131.102 242.438 130.664 242.353C130.253 242.238 129.952 242.183 129.733 242.153V241.075H146.545V246.098Z" fill="#F1F1F1"/>
<path d="M166.567 243.087C167.717 243.886 168.648 244.934 169.36 246.237C170.072 247.545 170.428 249.133 170.428 251.03C170.428 252.708 170.127 254.151 169.469 255.374C168.84 256.622 167.991 257.616 166.951 258.41C165.883 259.204 164.65 259.773 163.308 260.167C161.939 260.537 160.516 260.737 159.037 260.737H149.48V259.658C149.755 259.658 150.11 259.628 150.548 259.573C150.959 259.513 151.261 259.459 151.397 259.404C151.726 259.259 151.945 259.089 152.055 258.834C152.192 258.61 152.246 258.325 152.246 257.986V244.055C152.246 243.741 152.192 243.456 152.082 243.202C151.972 242.947 151.726 242.747 151.397 242.578C151.069 242.438 150.713 242.323 150.33 242.268C149.946 242.208 149.645 242.183 149.453 242.153V241.075H159.53C160.625 241.075 161.775 241.215 163.007 241.499C164.239 241.784 165.417 242.323 166.567 243.087ZM163.829 257.187C164.267 256.453 164.596 255.574 164.787 254.55C164.979 253.527 165.089 252.364 165.089 251.03C165.089 249.727 164.952 248.534 164.677 247.456C164.431 246.382 164.021 245.473 163.5 244.734C163.007 243.971 162.35 243.371 161.584 242.977C160.817 242.548 159.94 242.353 158.955 242.353H157.887C157.503 242.378 157.202 242.378 157.011 242.408V257.302C157.011 257.641 157.038 257.926 157.12 258.18C157.202 258.435 157.367 258.665 157.558 258.864C157.777 259.059 158.024 259.204 158.325 259.319C158.626 259.428 159.009 259.488 159.475 259.488C160.488 259.488 161.364 259.289 162.076 258.889C162.816 258.495 163.391 257.926 163.829 257.187Z" fill="#F1F1F1"/>
<path d="M182.749 260.737H172.234V259.658C172.481 259.628 172.809 259.598 173.302 259.573C173.768 259.543 174.069 259.488 174.26 259.404C174.589 259.259 174.808 259.089 174.945 258.864C175.055 258.635 175.109 258.35 175.109 257.986V244.055C175.109 243.741 175.055 243.456 174.945 243.232C174.836 242.977 174.589 242.807 174.26 242.632C174.042 242.548 173.74 242.463 173.302 242.353C172.891 242.268 172.536 242.208 172.234 242.153V241.075H182.749V242.153C182.475 242.183 182.147 242.238 181.736 242.268C181.352 242.323 180.997 242.408 180.723 242.493C180.394 242.607 180.148 242.807 180.038 243.062C179.928 243.316 179.874 243.601 179.874 243.911V257.841C179.874 258.18 179.928 258.465 180.038 258.695C180.175 258.919 180.394 259.119 180.723 259.259C180.914 259.344 181.216 259.429 181.654 259.513C182.092 259.598 182.448 259.628 182.749 259.658V260.737Z" fill="#F1F1F1"/>
<path d="M205.115 260.737H194.765V259.658C195.258 259.628 195.805 259.513 196.462 259.374C197.12 259.234 197.448 259.059 197.448 258.864C197.448 258.78 197.448 258.695 197.421 258.61C197.421 258.525 197.366 258.38 197.311 258.24L195.696 254.151H189.151C188.987 254.521 188.823 254.975 188.631 255.489C188.467 255.998 188.302 256.453 188.165 256.847C188.001 257.362 187.892 257.726 187.864 257.956C187.837 258.18 187.809 258.35 187.809 258.435C187.809 258.75 188.029 259.004 188.467 259.204C188.905 259.404 189.617 259.573 190.63 259.658V260.737H182.854V259.658C183.127 259.628 183.483 259.598 183.839 259.514C184.223 259.429 184.496 259.319 184.716 259.174C185.071 258.949 185.4 258.695 185.647 258.38C185.893 258.041 186.112 257.671 186.276 257.217C187.317 254.635 188.357 252.024 189.398 249.418C190.438 246.807 191.588 243.941 192.821 240.79H195.504C197.256 245.244 198.625 248.764 199.611 251.345C200.597 253.956 201.446 256.083 202.13 257.786C202.24 258.07 202.404 258.325 202.568 258.55C202.76 258.78 203.006 258.974 203.335 259.174C203.582 259.344 203.883 259.429 204.212 259.514C204.54 259.598 204.841 259.628 205.115 259.658V260.737ZM195.148 252.793L192.383 245.668L189.671 252.793H195.148Z" fill="#F1F1F1"/>
<path d="M16.6383 275.715H11.1736V275.146C11.4338 275.131 11.723 275.071 12.0699 274.996C12.4169 274.922 12.5904 274.832 12.5904 274.727C12.5904 274.682 12.5904 274.637 12.5759 274.592C12.5759 274.547 12.547 274.472 12.5181 274.397L11.6651 272.24H8.20993C8.12319 272.435 8.03645 272.675 7.93526 272.944C7.84851 273.214 7.76177 273.454 7.68948 273.663C7.60274 273.933 7.54493 274.128 7.53047 274.248C7.51601 274.367 7.50155 274.457 7.50155 274.502C7.50155 274.667 7.6172 274.802 7.84851 274.907C8.07982 275.011 8.4557 275.101 8.9906 275.146V275.715H4.88486V275.146C5.02943 275.131 5.21737 275.116 5.40531 275.071C5.6077 275.026 5.75228 274.966 5.86793 274.892C6.05587 274.772 6.22935 274.637 6.35946 274.472C6.48957 274.292 6.60522 274.098 6.69196 273.858C7.24132 272.495 7.79068 271.117 8.34004 269.739C8.8894 268.361 9.49659 266.848 10.1471 265.185H11.5639C12.4892 267.537 13.212 269.394 13.7325 270.757C14.2529 272.136 14.7011 273.259 15.0625 274.158C15.1203 274.307 15.2071 274.442 15.2938 274.562C15.395 274.682 15.5251 274.787 15.6986 274.892C15.8287 274.981 15.9877 275.026 16.1612 275.071C16.3347 275.116 16.4937 275.131 16.6383 275.146V275.715ZM11.376 271.521L9.91585 267.762L8.48461 271.521H11.376Z" fill="#F1F1F1"/>
<path d="M30.4918 275.715H25.056V275.146C25.215 275.131 25.4174 275.101 25.6487 275.071C25.8801 275.041 26.0391 274.996 26.1258 274.966C26.2993 274.892 26.4294 274.787 26.5017 274.667C26.574 274.532 26.6174 274.367 26.6174 274.173V266.429L23.1622 275.551H22.2803C22.2369 275.386 22.1357 275.071 21.9623 274.592C21.8032 274.113 21.6586 273.723 21.5575 273.439L19.0275 266.309V272.615C19.0275 273.229 19.0709 273.693 19.1432 273.993C19.2154 274.307 19.3456 274.547 19.519 274.697C19.6347 274.787 19.8515 274.892 20.1551 274.981C20.4587 275.071 20.6611 275.131 20.7912 275.146V275.715H16.4831V275.146C16.5987 275.131 16.7867 275.101 17.0614 275.041C17.3216 274.996 17.5384 274.907 17.7119 274.772C17.8999 274.637 18.03 274.412 18.0878 274.083C18.1601 273.768 18.189 273.304 18.189 272.705V267.567C18.189 267.252 18.1601 266.983 18.0733 266.788C18.0011 266.578 17.8854 266.414 17.7408 266.294C17.5529 266.144 17.365 266.039 17.1626 265.994C16.9602 265.949 16.7578 265.919 16.5554 265.904V265.335H21.1671L23.6392 272.195L25.721 266.623C25.7933 266.414 25.8656 266.174 25.9234 265.889C25.9957 265.605 26.0246 265.425 26.0391 265.335H30.4773V265.904C30.3183 265.919 30.1737 265.934 30.0003 265.964C29.8412 265.994 29.6822 266.039 29.5232 266.084C29.3497 266.144 29.2196 266.249 29.1618 266.384C29.1039 266.519 29.075 266.668 29.075 266.833V274.188C29.075 274.367 29.1039 274.517 29.1618 274.622C29.2196 274.742 29.3497 274.847 29.5232 274.936C29.6244 274.981 29.7834 275.026 29.9858 275.071C30.2027 275.101 30.3761 275.131 30.4918 275.146V275.715Z" fill="#F1F1F1"/>
<path d="M37.033 275.715H31.4816V275.146C31.6117 275.131 31.7852 275.116 32.0454 275.101C32.2911 275.086 32.4502 275.056 32.5514 275.011C32.7249 274.936 32.8405 274.847 32.9128 274.727C32.9706 274.607 32.9995 274.457 32.9995 274.262V266.908C32.9995 266.743 32.9706 266.593 32.9128 266.474C32.855 266.339 32.7249 266.249 32.5514 266.159C32.4357 266.114 32.2767 266.069 32.0454 266.009C31.8285 265.964 31.6406 265.934 31.4816 265.904V265.335H37.033V265.904C36.8884 265.919 36.7149 265.949 36.4981 265.964C36.2957 265.994 36.1078 266.039 35.9632 266.084C35.7897 266.144 35.6596 266.249 35.6018 266.384C35.5439 266.519 35.515 266.668 35.515 266.833V274.188C35.515 274.367 35.5439 274.517 35.6018 274.637C35.6741 274.757 35.7897 274.862 35.9632 274.936C36.0644 274.981 36.2234 275.026 36.4547 275.071C36.686 275.116 36.874 275.131 37.033 275.146V275.715Z" fill="#F1F1F1"/>
<path d="M49.7372 275.715H45.7616C45.1689 274.772 44.634 273.963 44.1424 273.334C43.6654 272.69 43.0582 271.896 42.3064 270.922H41.945V274.188C41.945 274.367 41.9739 274.517 42.0317 274.637C42.0896 274.757 42.2197 274.862 42.3932 274.936C42.4799 274.981 42.61 275.011 42.769 275.056C42.9425 275.101 43.1015 275.131 43.275 275.146V275.715H37.9549V275.146C38.085 275.131 38.2585 275.116 38.4898 275.101C38.7211 275.086 38.8801 275.056 38.9813 275.011C39.1548 274.951 39.2705 274.847 39.3283 274.727C39.4006 274.607 39.4295 274.457 39.4295 274.262V266.908C39.4295 266.743 39.4006 266.593 39.3428 266.474C39.2849 266.354 39.1693 266.249 38.9813 266.159C38.8368 266.099 38.6633 266.039 38.4464 265.994C38.244 265.949 38.085 265.919 37.9549 265.904V265.335H43.4485V265.904C43.3039 265.919 43.1304 265.949 42.9281 265.964C42.7257 265.994 42.5377 266.039 42.3932 266.084C42.2197 266.144 42.0896 266.249 42.0317 266.384C41.9739 266.519 41.945 266.668 41.945 266.833V270.338H42.2341C42.5955 269.994 43.0293 269.574 43.5208 269.08C44.0123 268.601 44.3882 268.196 44.6629 267.882C45.0388 267.447 45.3134 267.103 45.4869 266.848C45.6604 266.593 45.7471 266.384 45.7471 266.189C45.7471 266.114 45.6604 266.039 45.5014 266.009C45.3279 265.964 45.0677 265.934 44.7207 265.904V265.335H49.0722V265.904C48.5518 265.964 48.1036 266.069 47.7422 266.204C47.3952 266.339 47.0338 266.578 46.6868 266.908C46.1808 267.372 45.7616 267.777 45.4436 268.121C45.111 268.466 44.6918 268.9 44.1713 269.439C44.634 270.009 45.1689 270.713 45.805 271.536C46.4411 272.36 47.0772 273.169 47.7133 273.948C47.8723 274.158 48.0458 274.337 48.2626 274.532C48.465 274.712 48.6963 274.862 48.9421 274.966C49.0578 275.026 49.1879 275.071 49.3469 275.086C49.4915 275.116 49.6216 275.146 49.7372 275.146V275.715Z" fill="#F1F1F1"/>
<path d="M59.032 266.489C59.5235 266.968 59.9139 267.522 60.203 268.196C60.4921 268.855 60.6367 269.604 60.6367 270.458C60.6367 271.207 60.5211 271.926 60.2753 272.615C60.0295 273.304 59.6681 273.888 59.2199 274.382C58.7284 274.892 58.1646 275.281 57.4996 275.566C56.849 275.865 56.0683 276 55.172 276C54.4347 276 53.7553 275.88 53.1047 275.626C52.4541 275.386 51.8759 275.011 51.3843 274.547C50.8928 274.083 50.5025 273.514 50.2133 272.854C49.9386 272.195 49.7941 271.446 49.7941 270.638C49.7941 269.784 49.9242 269.02 50.2133 268.331C50.488 267.642 50.8783 267.058 51.3699 266.563C51.8469 266.069 52.4252 265.71 53.0902 265.44C53.7552 265.185 54.4636 265.051 55.2154 265.051C55.9671 265.051 56.6611 265.185 57.3261 265.425C57.9767 265.68 58.5549 266.039 59.032 266.489ZM57.2104 273.918C57.4273 273.469 57.5863 272.974 57.6731 272.405C57.7743 271.851 57.8176 271.222 57.8176 270.503C57.8176 269.904 57.7743 269.319 57.6875 268.75C57.6152 268.181 57.4707 267.687 57.2683 267.237C57.0659 266.788 56.8056 266.444 56.4731 266.174C56.1262 265.904 55.7214 265.77 55.2154 265.77C54.3624 265.77 53.7119 266.189 53.2782 267.028C52.83 267.867 52.6132 269.035 52.6132 270.563C52.6132 271.222 52.6565 271.821 52.7577 272.405C52.8589 272.974 53.0035 273.484 53.2059 273.903C53.4228 274.337 53.6974 274.682 54.0155 274.922C54.348 275.161 54.7383 275.281 55.2154 275.281C55.678 275.281 56.0828 275.161 56.4153 274.922C56.7478 274.682 57.0225 274.337 57.2104 273.918Z" fill="#F1F1F1"/>
<path d="M75.3938 275.715H69.958V275.146C70.1171 275.131 70.3195 275.101 70.5508 275.071C70.7821 275.041 70.9411 274.996 71.0278 274.966C71.2013 274.892 71.3314 274.787 71.4037 274.667C71.476 274.532 71.5194 274.367 71.5194 274.173V266.429L68.0642 275.551H67.1823C67.139 275.386 67.0377 275.071 66.8643 274.592C66.7052 274.113 66.5607 273.723 66.4595 273.439L63.9295 266.309V272.615C63.9295 273.229 63.9729 273.693 64.0452 273.993C64.1175 274.307 64.2476 274.547 64.4211 274.697C64.5367 274.787 64.7536 274.892 65.0572 274.981C65.3608 275.071 65.5632 275.131 65.6933 275.146V275.715H61.3851V275.146C61.5008 275.131 61.6887 275.101 61.9634 275.041C62.2236 274.996 62.4405 274.907 62.614 274.772C62.8019 274.637 62.932 274.412 62.9898 274.083C63.0621 273.768 63.091 273.304 63.091 272.705V267.567C63.091 267.252 63.0621 266.983 62.9754 266.788C62.9031 266.578 62.7874 266.414 62.6429 266.294C62.4549 266.144 62.267 266.039 62.0646 265.994C61.8622 265.949 61.6598 265.919 61.4574 265.904V265.335H66.0691L68.5413 272.195L70.623 266.623C70.6953 266.414 70.7676 266.174 70.8255 265.889C70.8977 265.605 70.9266 265.425 70.9411 265.335H75.3794V265.904C75.2203 265.919 75.0758 265.934 74.9023 265.964C74.7433 265.994 74.5842 266.039 74.4252 266.084C74.2517 266.144 74.1216 266.249 74.0638 266.384C74.0059 266.519 73.977 266.668 73.977 266.833V274.188C73.977 274.367 74.0059 274.517 74.0638 274.622C74.1216 274.742 74.2517 274.847 74.4252 274.936C74.5264 274.981 74.6854 275.026 74.8878 275.071C75.1047 275.101 75.2782 275.131 75.3938 275.146V275.715Z" fill="#F1F1F1"/>
<path d="M89.4801 267.926C89.4801 268.526 89.3644 269.02 89.1331 269.439C88.9018 269.859 88.5838 270.203 88.1645 270.473C87.7453 270.742 87.2682 270.937 86.7188 271.057C86.1695 271.192 85.5623 271.252 84.8828 271.252H84.0732V274.158C84.0732 274.337 84.1021 274.487 84.16 274.622C84.2322 274.757 84.3479 274.862 84.5214 274.936C84.6226 274.966 84.7672 275.011 84.984 275.056C85.2009 275.101 85.3743 275.131 85.5189 275.146V275.715H80.0976V275.146C80.2277 275.131 80.4156 275.116 80.6325 275.086C80.8638 275.056 81.0228 275.026 81.1096 274.981C81.2975 274.907 81.4132 274.817 81.471 274.697C81.5288 274.592 81.5577 274.427 81.5577 274.233V266.908C81.5577 266.743 81.5288 266.593 81.471 266.474C81.4132 266.339 81.2975 266.234 81.1096 266.159C80.9795 266.099 80.806 266.039 80.5891 265.994C80.3578 265.949 80.1988 265.919 80.0976 265.904V265.335H85.6201C86.9212 265.335 87.8754 265.545 88.5259 265.979C89.162 266.399 89.4801 267.058 89.4801 267.926ZM86.7333 268.301C86.7333 267.522 86.5742 266.953 86.2707 266.563C85.9671 266.189 85.4322 266.009 84.6515 266.009H84.0732V270.563H84.3624C85.1286 270.563 85.7213 270.368 86.1261 270.009C86.5309 269.634 86.7333 269.065 86.7333 268.301Z" fill="#F1F1F1"/>
<path d="M101.771 265.904C101.627 265.919 101.439 265.949 101.179 266.009C100.918 266.054 100.702 266.144 100.528 266.279C100.355 266.399 100.224 266.608 100.152 266.938C100.08 267.252 100.037 267.717 100.037 268.361V272.225C100.037 273.349 99.6751 274.262 98.9233 274.966C98.186 275.655 97.203 276 95.9741 276C94.5574 276 93.4442 275.67 92.6635 274.996C91.8828 274.337 91.4925 273.394 91.4925 272.21V266.893C91.4925 266.728 91.4636 266.578 91.4058 266.458C91.3335 266.339 91.2178 266.219 91.0299 266.129C90.9142 266.069 90.7552 266.009 90.5817 265.979C90.4082 265.934 90.2637 265.904 90.148 265.889V265.335H95.3959V265.889C95.2513 265.904 95.0923 265.919 94.9332 265.949C94.7887 265.979 94.6296 266.009 94.4706 266.069C94.2827 266.129 94.167 266.219 94.1092 266.354C94.0514 266.503 94.008 266.653 94.008 266.818V272.061C94.008 273.094 94.2393 273.843 94.673 274.307C95.1067 274.772 95.7428 275.011 96.5813 275.011C97.3909 275.011 98.0415 274.742 98.5041 274.232C98.9667 273.708 99.198 272.959 99.198 271.956V268.436C99.198 267.807 99.1547 267.342 99.0824 267.028C98.9956 266.713 98.8655 266.503 98.7065 266.354C98.5764 266.249 98.3595 266.159 98.0559 266.069C97.7523 265.979 97.5499 265.934 97.4198 265.904V265.335H101.771V265.904Z" fill="#F1F1F1"/>
<path d="M113.778 275.715H109.932C109.282 274.667 108.718 273.828 108.284 273.199C107.85 272.57 107.301 271.851 106.636 271.027H106.26V274.188C106.26 274.367 106.289 274.517 106.347 274.637C106.419 274.757 106.535 274.862 106.708 274.936C106.81 274.981 106.94 275.026 107.128 275.056C107.33 275.101 107.489 275.131 107.619 275.146V275.715H102.285V275.146C102.415 275.131 102.603 275.116 102.819 275.086C103.051 275.056 103.195 275.026 103.297 274.981C103.47 274.907 103.6 274.802 103.658 274.682C103.716 274.562 103.745 274.412 103.745 274.233V266.908C103.745 266.728 103.716 266.593 103.672 266.474C103.615 266.354 103.499 266.249 103.297 266.159C103.152 266.099 102.964 266.039 102.762 266.009C102.559 265.964 102.4 265.934 102.285 265.904V265.335H107.894C109.152 265.335 110.106 265.545 110.756 265.949C111.407 266.354 111.739 266.968 111.739 267.792C111.739 268.526 111.537 269.11 111.132 269.544C110.727 269.994 110.12 270.338 109.296 270.578C109.614 271.012 109.99 271.506 110.409 272.076C110.843 272.645 111.291 273.214 111.739 273.813C111.898 273.993 112.086 274.233 112.347 274.502C112.592 274.787 112.824 274.951 113.012 275.011C113.113 275.041 113.257 275.071 113.416 275.101C113.59 275.131 113.705 275.146 113.778 275.146V275.715ZM108.978 268.001C108.978 267.312 108.79 266.803 108.414 266.489C108.038 266.159 107.503 266.009 106.81 266.009H106.26V270.353H106.795C107.489 270.353 108.024 270.158 108.4 269.784C108.776 269.409 108.978 268.81 108.978 268.001Z" fill="#F1F1F1"/>
<path d="M129.873 265.919C129.729 265.934 129.584 265.964 129.44 266.024C129.295 266.069 129.151 266.144 129.006 266.219C128.789 266.339 128.63 266.474 128.543 266.638C128.457 266.788 128.37 266.968 128.298 267.178C128.037 267.927 127.633 269.11 127.098 270.742C126.563 272.375 125.999 274.068 125.406 275.835H123.99L121.344 268.121L118.959 275.835H117.542C116.761 273.469 116.154 271.641 115.735 270.353C115.315 269.08 114.968 268.001 114.679 267.133C114.593 266.878 114.491 266.683 114.376 266.563C114.26 266.444 114.116 266.324 113.928 266.204C113.812 266.114 113.667 266.054 113.523 266.009C113.378 265.964 113.219 265.934 113.031 265.904V265.335H118.38V265.889C118.062 265.934 117.831 265.964 117.672 266.009C117.513 266.039 117.397 266.084 117.296 266.114C117.224 266.159 117.166 266.204 117.151 266.249C117.123 266.294 117.123 266.324 117.123 266.354C117.123 266.429 117.123 266.489 117.137 266.563C117.166 266.623 117.18 266.698 117.195 266.773C117.31 267.163 117.542 267.882 117.874 268.945C118.221 270.008 118.641 271.327 119.146 272.899L121.431 265.335H122.934L125.58 273.139C125.97 271.881 126.274 270.862 126.505 270.068C126.736 269.26 126.939 268.586 127.098 268.016C127.199 267.672 127.271 267.387 127.329 267.148C127.387 266.923 127.416 266.713 127.416 266.548C127.416 266.444 127.358 266.354 127.271 266.279C127.185 266.204 127.054 266.144 126.895 266.084C126.765 266.039 126.606 266.009 126.389 265.979C126.187 265.964 125.999 265.934 125.84 265.919V265.335H129.873V265.919Z" fill="#F1F1F1"/>
<path d="M139.349 266.489C139.84 266.968 140.231 267.522 140.52 268.196C140.809 268.855 140.954 269.604 140.954 270.458C140.954 271.207 140.838 271.926 140.592 272.615C140.346 273.304 139.985 273.888 139.537 274.382C139.045 274.892 138.482 275.281 137.817 275.566C137.166 275.865 136.385 276 135.489 276C134.752 276 134.072 275.88 133.422 275.626C132.771 275.386 132.193 275.011 131.701 274.547C131.21 274.083 130.819 273.514 130.53 272.854C130.256 272.195 130.111 271.446 130.111 270.638C130.111 269.784 130.241 269.02 130.53 268.331C130.805 267.642 131.195 267.058 131.687 266.563C132.164 266.069 132.742 265.71 133.407 265.44C134.072 265.185 134.781 265.051 135.532 265.051C136.284 265.051 136.978 265.185 137.643 265.425C138.294 265.68 138.872 266.039 139.349 266.489ZM137.527 273.918C137.744 273.469 137.903 272.974 137.99 272.405C138.091 271.851 138.135 271.222 138.135 270.503C138.135 269.904 138.091 269.319 138.004 268.75C137.932 268.181 137.788 267.687 137.585 267.237C137.383 266.788 137.123 266.444 136.79 266.174C136.443 265.904 136.038 265.77 135.532 265.77C134.679 265.77 134.029 266.189 133.595 267.028C133.147 267.867 132.93 269.035 132.93 270.563C132.93 271.222 132.973 271.821 133.075 272.405C133.176 272.974 133.32 273.484 133.523 273.903C133.74 274.337 134.014 274.682 134.332 274.922C134.665 275.161 135.055 275.281 135.532 275.281C135.995 275.281 136.4 275.161 136.732 274.922C137.065 274.682 137.339 274.337 137.527 273.918Z" fill="#F1F1F1"/>
<path d="M153.717 275.715H149.741C149.148 274.772 148.613 273.963 148.122 273.334C147.645 272.69 147.038 271.896 146.286 270.922H145.924V274.188C145.924 274.367 145.953 274.517 146.011 274.637C146.069 274.757 146.199 274.862 146.373 274.936C146.459 274.981 146.589 275.011 146.748 275.056C146.922 275.101 147.081 275.131 147.254 275.146V275.715H141.934V275.146C142.064 275.131 142.238 275.116 142.469 275.101C142.701 275.086 142.86 275.056 142.961 275.011C143.134 274.951 143.25 274.847 143.308 274.727C143.38 274.607 143.409 274.457 143.409 274.262V266.908C143.409 266.743 143.38 266.593 143.322 266.474C143.264 266.354 143.149 266.249 142.961 266.159C142.816 266.099 142.643 266.039 142.426 265.994C142.223 265.949 142.064 265.919 141.934 265.904V265.335H147.428V265.904C147.283 265.919 147.11 265.949 146.907 265.964C146.705 265.994 146.517 266.039 146.373 266.084C146.199 266.144 146.069 266.249 146.011 266.384C145.953 266.519 145.924 266.668 145.924 266.833V270.338H146.214C146.575 269.994 147.009 269.574 147.5 269.08C147.992 268.601 148.368 268.196 148.642 267.882C149.018 267.447 149.293 267.103 149.466 266.848C149.64 266.593 149.727 266.384 149.727 266.189C149.727 266.114 149.64 266.039 149.481 266.009C149.307 265.964 149.047 265.934 148.7 265.904V265.335H153.052V265.904C152.531 265.964 152.083 266.069 151.722 266.204C151.375 266.339 151.013 266.578 150.666 266.908C150.16 267.372 149.741 267.777 149.423 268.121C149.09 268.466 148.671 268.9 148.151 269.439C148.613 270.009 149.148 270.713 149.784 271.536C150.42 272.36 151.057 273.169 151.693 273.948C151.852 274.158 152.025 274.337 152.242 274.532C152.444 274.712 152.676 274.862 152.922 274.966C153.037 275.026 153.167 275.071 153.326 275.086C153.471 275.116 153.601 275.146 153.717 275.146V275.715Z" fill="#F1F1F1"/>
<path d="M162.635 267.986H162.1C161.955 267.597 161.724 267.193 161.391 266.788C161.059 266.384 160.726 266.144 160.394 266.069C160.249 266.039 160.061 266.009 159.801 266.009C159.555 265.994 159.353 265.994 159.179 265.994H157.734V270.009H158.76C159.02 270.009 159.252 269.979 159.469 269.904C159.671 269.844 159.873 269.724 160.047 269.544C160.148 269.424 160.264 269.23 160.365 268.945C160.481 268.66 160.553 268.421 160.582 268.211H161.117V272.54H160.582C160.553 272.33 160.481 272.076 160.365 271.776C160.249 271.461 160.148 271.252 160.047 271.132C159.888 270.952 159.7 270.832 159.498 270.772C159.281 270.697 159.035 270.668 158.76 270.668H157.734V273.663C157.734 273.978 157.748 274.218 157.792 274.397C157.835 274.592 157.922 274.727 158.052 274.817C158.167 274.921 158.327 274.981 158.529 275.011C158.731 275.041 159.006 275.056 159.367 275.056C159.526 275.056 159.729 275.041 159.96 275.041C160.191 275.041 160.394 275.026 160.567 274.996C160.77 274.981 160.943 274.936 161.117 274.892C161.29 274.847 161.42 274.772 161.507 274.682C161.724 274.442 161.984 274.068 162.273 273.588C162.548 273.094 162.736 272.72 162.823 272.48H163.343L163.155 275.715H153.758V275.146C153.888 275.131 154.062 275.116 154.293 275.086C154.51 275.056 154.669 275.026 154.77 274.981C154.944 274.907 155.074 274.802 155.132 274.682C155.189 274.562 155.218 274.412 155.218 274.233V266.908C155.218 266.728 155.189 266.593 155.146 266.474C155.088 266.354 154.973 266.249 154.77 266.159C154.654 266.099 154.481 266.054 154.25 266.009C154.033 265.949 153.874 265.919 153.758 265.904V265.335H162.635V267.986Z" fill="#F1F1F1"/>
<path d="M175.678 275.715H171.832C171.182 274.667 170.618 273.828 170.184 273.199C169.75 272.57 169.201 271.851 168.536 271.027H168.16V274.188C168.16 274.367 168.189 274.517 168.247 274.637C168.319 274.757 168.435 274.862 168.608 274.936C168.709 274.981 168.84 275.026 169.027 275.056C169.23 275.101 169.389 275.131 169.519 275.146V275.715H164.184V275.146C164.315 275.131 164.503 275.116 164.719 275.086C164.951 275.056 165.095 275.026 165.196 274.981C165.37 274.907 165.5 274.802 165.558 274.682C165.616 274.562 165.645 274.412 165.645 274.233V266.908C165.645 266.728 165.616 266.593 165.572 266.474C165.514 266.354 165.399 266.249 165.196 266.159C165.052 266.099 164.864 266.039 164.662 266.009C164.459 265.964 164.3 265.934 164.184 265.904V265.335H169.794C171.051 265.335 172.006 265.545 172.656 265.949C173.307 266.354 173.639 266.968 173.639 267.792C173.639 268.526 173.437 269.11 173.032 269.544C172.627 269.994 172.02 270.338 171.196 270.578C171.514 271.012 171.89 271.506 172.309 272.076C172.743 272.645 173.191 273.214 173.639 273.813C173.798 273.993 173.986 274.233 174.246 274.502C174.492 274.787 174.724 274.951 174.911 275.011C175.013 275.041 175.157 275.071 175.316 275.101C175.49 275.131 175.605 275.146 175.678 275.146V275.715ZM170.878 268.001C170.878 267.312 170.69 266.803 170.314 266.489C169.938 266.159 169.403 266.009 168.709 266.009H168.16V270.353H168.695C169.389 270.353 169.924 270.158 170.3 269.784C170.676 269.409 170.878 268.81 170.878 268.001Z" fill="#F1F1F1"/>
<path d="M185.022 268.301H184.473C184.328 267.867 184.097 267.387 183.779 266.878C183.446 266.369 183.157 266.099 182.882 266.054C182.723 266.039 182.55 266.024 182.319 266.009C182.102 265.994 181.914 265.994 181.755 265.994H181.422V274.128C181.422 274.307 181.451 274.457 181.509 274.592C181.567 274.727 181.697 274.832 181.87 274.907C181.972 274.951 182.145 274.996 182.376 275.041C182.608 275.086 182.796 275.131 182.955 275.146V275.715H177.374V275.146C177.505 275.131 177.707 275.116 177.953 275.086C178.198 275.056 178.357 275.026 178.459 274.981C178.632 274.907 178.762 274.802 178.82 274.667C178.878 274.532 178.907 274.382 178.907 274.203V265.994H178.574C178.415 265.994 178.227 265.994 178.01 266.009C177.794 266.024 177.606 266.039 177.447 266.054C177.172 266.099 176.883 266.369 176.565 266.878C176.232 267.387 176.001 267.867 175.856 268.301H175.307V265.335H185.022V268.301Z" fill="#F1F1F1"/>
<path d="M194.854 266.489C195.346 266.968 195.736 267.522 196.025 268.196C196.314 268.855 196.459 269.604 196.459 270.458C196.459 271.207 196.343 271.926 196.097 272.615C195.852 273.304 195.49 273.888 195.042 274.382C194.551 274.892 193.987 275.281 193.322 275.566C192.671 275.865 191.891 276 190.994 276C190.257 276 189.577 275.88 188.927 275.626C188.276 275.386 187.698 275.011 187.206 274.547C186.715 274.083 186.325 273.514 186.035 272.854C185.761 272.195 185.616 271.446 185.616 270.638C185.616 269.784 185.746 269.02 186.035 268.331C186.31 267.642 186.701 267.058 187.192 266.563C187.669 266.069 188.247 265.71 188.912 265.44C189.577 265.185 190.286 265.051 191.038 265.051C191.789 265.051 192.483 265.185 193.148 265.425C193.799 265.68 194.377 266.039 194.854 266.489ZM193.033 273.918C193.249 273.469 193.408 272.974 193.495 272.405C193.596 271.851 193.64 271.222 193.64 270.503C193.64 269.904 193.596 269.319 193.51 268.75C193.437 268.181 193.293 267.687 193.09 267.237C192.888 266.788 192.628 266.444 192.295 266.174C191.948 265.904 191.544 265.77 191.038 265.77C190.185 265.77 189.534 266.189 189.1 267.028C188.652 267.867 188.435 269.035 188.435 270.563C188.435 271.222 188.479 271.821 188.58 272.405C188.681 272.974 188.826 273.484 189.028 273.903C189.245 274.337 189.52 274.682 189.838 274.922C190.17 275.161 190.56 275.281 191.038 275.281C191.5 275.281 191.905 275.161 192.237 274.922C192.57 274.682 192.845 274.337 193.033 273.918Z" fill="#F1F1F1"/>
</g>
<defs>
<clipPath id="clip0_1_96">
<rect width="210" height="276" fill="white"/>
</clipPath>
</defs>
</svg>
